<svg preserveAspectRatio="none" width="100%" height="100%" overflow="visible" style="display: block;" viewBox="0 0 1822 559" fill="none" xmlns="http://www.w3.org/2000/svg">
<path id="Vector" d="M1077.22 26.7197C1089.01 26.5259 1150.78 14.8707 1164.5 12.2066C1244.89 -3.40054 1320.19 -4.82946 1400.83 12.5121C1438.99 19.8968 1486.79 29.0949 1523.49 41.2691C1612.95 70.9361 1760.96 160.624 1822 230.358C1726.04 175.945 1699.45 152.007 1587.14 122.258C1414.06 76.4154 1265.9 95.6459 1095.74 143.118C1025.51 161.547 714.28 294.12 726.729 373.814C761.138 388.955 1294.09 106.766 1558.92 214.146C1468.61 231.875 1421.43 239.622 1334.93 274.163C1091.54 371.354 887.158 596.686 603.167 553.583C476.051 534.29 352.775 474.096 246.834 403.107C156.6 342.932 73.759 272.409 0 192.991C26.4432 201.762 76.5097 219.09 98.7428 226.557C130.256 237.141 317.339 271.237 333.411 264.121L335.095 256.753L337.565 263.881C347.702 267.518 371.193 263.06 383.04 261.904C497.108 250.754 594.645 208.624 701.261 169.674C737.02 148.745 774.121 140.036 810.704 124.212C877.08 95.5014 943.424 73.6101 1010.57 47.4121C1033.57 38.4407 1055.92 37.6128 1077.22 26.7197Z" fill="url(#paint0_linear_0_44)"/>
<defs>
<linearGradient id="paint0_linear_0_44" x1="-141.222" y1="280.079" x2="1800.01" y2="280.079" gradientUnits="userSpaceOnUse">
<stop stop-color="#EDF6FC"/>
<stop offset="1" stop-color="#FAFBFD"/>
</linearGradient>
</defs>
</svg>
