<svg width="100" height="100" viewBox="0 0 100 100" fill="none" xmlns="http://www.w3.org/2000/svg">
<rect width="100" height="100" fill="#F0F7FC"/>
<g clip-path="url(#clip0_45_2)">
<path d="M8.25146 39.196C11.254 39.1452 14.2766 39.2136 17.2797 39.2045C20.8161 39.1937 23.866 41.7829 23.9901 45.4181C24.0308 46.7548 23.607 48.064 22.7912 49.1213C22.5192 49.468 22.1841 49.7833 21.88 50.1092C22.0756 50.2808 22.2872 50.4028 22.502 50.5476C25.0709 52.2778 25.5404 56.3262 23.8041 58.8026C23.4941 59.2635 23.3356 59.4572 22.931 59.8504C22.0427 60.7086 20.9489 61.3224 19.7553 61.6326C18.4179 61.9695 15.6251 61.8729 14.1315 61.8726C12.1941 61.8721 10.1261 61.8972 8.1953 61.8627C8.11426 56.5164 8.18687 50.9628 8.18738 45.6L8.1839 41.5208C8.18339 41.0107 8.15422 39.6176 8.25146 39.196ZM12.6392 57.6823C13.7205 57.6705 14.8019 57.6672 15.8832 57.6724C16.763 57.6719 17.8796 57.7298 18.722 57.5199C19.0059 57.4492 19.2661 57.1963 19.4835 57.0014C20.5505 56.1736 20.579 54.2828 19.802 53.2529C18.9582 52.1346 17.3225 52.3517 16.0867 52.3576L12.6289 52.3624C12.6222 54.1357 12.6256 55.909 12.6392 57.6823ZM12.6542 48.3285C13.5712 48.3508 17.1783 48.4662 17.8494 48.2543C18.2242 48.1359 18.5369 47.8642 18.8276 47.61C19.7414 46.6574 19.6958 44.9055 18.7505 43.9932C18.4781 43.7282 18.1384 43.5433 17.7685 43.4586C17.3134 43.3506 16.7971 43.3643 16.3296 43.3719C15.1318 43.3917 13.9194 43.354 12.723 43.3875C12.6912 43.3885 12.6594 43.39 12.6277 43.3919C12.6494 45.021 12.5904 46.7077 12.6542 48.3285Z" fill="#113E66"/>
<path d="M58.8798 39.1633C60.0396 39.2143 61.2207 39.173 62.3814 39.1813C62.9199 39.1851 63.7224 39.1504 64.237 39.231C64.552 39.6634 64.7609 40.4751 64.9346 40.9869L65.7185 43.2611L70.2127 56.0317L71.7119 60.2984C71.8772 60.7662 72.0332 61.4312 72.2345 61.8501C71.6093 61.9016 70.8254 61.8761 70.186 61.8734C69.2706 61.8751 68.3557 61.8693 67.4403 61.8561C66.8982 60.4366 66.4854 58.9033 66.0233 57.453L63.6069 49.8531C63.3225 48.939 63.0314 48.0275 62.7511 47.1124C62.5827 46.563 62.4351 46.0161 62.217 45.4833C62.0148 44.7611 61.8219 44.0704 61.5846 43.3578L57.3704 56.5787C57.1384 57.3004 56.9487 58.0097 56.6941 58.7318C56.3546 59.6962 56.1306 60.8821 55.6751 61.7947C55.4885 61.9222 51.4044 61.8848 50.8934 61.8525C50.989 61.4902 51.1236 61.1732 51.244 60.8214L52.027 58.558L54.7562 50.7748L57.6445 42.4604C57.9902 41.4639 58.3337 40.4508 58.6741 39.452C58.7185 39.3214 58.7625 39.2361 58.8798 39.1633Z" fill="#113E66"/>
<path d="M30.4118 53.558C30.7373 52.6737 31.0572 51.6626 31.3661 50.7656L33.1308 45.7791C33.5378 44.6203 33.9109 43.4544 34.3391 42.3016C34.6866 41.3658 34.9106 40.3098 35.3653 39.4265C35.4239 39.3125 35.4656 39.2652 35.5894 39.2281C35.8596 39.1471 39.8934 39.1519 40.4633 39.1794C40.5848 39.1853 40.7666 39.1928 40.8697 39.257C41.0758 39.3852 41.283 40.1366 41.3807 40.3959C41.5819 40.9296 41.7388 41.4746 41.9255 42.0128L43.2667 45.8244C43.5241 46.5488 43.7691 47.2434 44.0089 47.9739C44.2629 48.7478 44.5808 49.4397 44.7871 50.2421C45.3019 50.3424 45.9467 50.4673 46.4417 50.6325C47.6484 51.0353 49.6448 52.2529 50.4682 53.1996C49.1738 52.4609 48.8152 52.1359 47.3002 51.7321C44.9656 51.1097 42.9671 51.3708 40.6719 52.0152C39.7246 52.2654 35.5265 54.0653 35.6944 55.1472C36.1585 55.3527 43.3474 51.5217 46.9196 52.9795C45.7014 53.2202 45.065 53.3254 43.8982 53.7943C40.6152 55.1138 37.8584 58.1729 34.0277 57.5878C32.3131 57.3258 30.6503 56.5086 29.2213 55.5449C28.0041 54.7279 26.8867 53.7705 25.8918 52.6923C26.2485 52.8114 26.9238 53.0467 27.2237 53.148C27.6488 53.2917 30.1723 53.7546 30.3891 53.658L30.4118 53.558ZM35.3509 52.3758C35.8332 52.0916 36.3337 51.9734 36.8271 51.7586C37.7224 51.3688 38.6173 51.0716 39.5231 50.7159C39.8333 50.5941 40.1348 50.5829 40.4221 50.435C39.9002 48.568 39.1889 46.6728 38.6737 44.7962C38.5438 44.3232 38.334 43.8823 38.2197 43.3963C38.0617 43.9498 37.8801 44.3939 37.7151 44.9233L35.951 50.5638C35.7583 51.1759 35.5338 51.7505 35.3509 52.3758Z" fill="#113E66"/>
<path d="M40.4221 50.435C40.5812 50.4324 41.4143 50.2742 41.5994 50.238C42.6837 50.0261 43.6994 50.0067 44.7871 50.2421C45.3019 50.3424 45.9467 50.4673 46.4417 50.6325C47.6484 51.0353 49.6448 52.2529 50.4682 53.1996C49.1738 52.4609 48.8152 52.1359 47.3002 51.732C44.9656 51.1097 42.9671 51.3708 40.6719 52.0152C39.7246 52.2654 35.5265 54.0653 35.6944 55.1472C36.1585 55.3527 43.3474 51.5217 46.9196 52.9795C45.7014 53.2202 45.065 53.3254 43.8982 53.7943C40.6152 55.1138 37.8584 58.1729 34.0277 57.5877C32.3131 57.3258 30.6503 56.5086 29.2213 55.5449C28.0041 54.7279 26.8867 53.7705 25.8918 52.6923C26.2485 52.8114 26.9238 53.0466 27.2237 53.148C27.6488 53.2917 30.1723 53.7546 30.3891 53.658L30.4118 53.558L30.4451 53.6547C30.5818 53.7041 30.8987 53.6436 31.0585 53.6279C32.5971 53.4765 33.9128 52.9046 35.3509 52.3758C35.8332 52.0916 36.3337 51.9734 36.8271 51.7586C37.7224 51.3688 38.6173 51.0716 39.5231 50.7159C39.8333 50.5941 40.1348 50.5829 40.4221 50.435Z" fill="#D43D37"/>
<path d="M82.0979 50.1167C82.564 48.9332 86.2486 39.5753 86.585 39.2582C86.7383 39.1138 90.4113 39.1831 90.9543 39.1755C90.5344 40.3856 90.0896 41.3733 89.6021 42.5501L87.8238 46.8703L86.7036 49.5978C86.5187 50.0548 86.3699 50.4869 86.1593 50.9351C85.982 51.2691 85.7753 51.8778 85.6078 52.2568C84.4392 54.9045 83.7317 57.6916 81.5304 59.7234C79.6726 61.4377 77.7716 61.9275 75.3254 61.8641C75.2979 60.6357 75.2481 58.8865 75.3592 57.6889C77.98 57.7629 78.6497 57.1645 80.1125 55.0705C79.9787 54.7253 79.6668 54.1232 79.4975 53.7589L78.1364 50.8272C76.3537 46.9769 74.4394 43.0609 72.7228 39.1933C73.6938 39.2149 74.6753 39.168 75.6463 39.182C75.9875 39.2314 77.0429 39.035 77.2162 39.376C77.5796 40.0906 77.9063 40.8762 78.2306 41.5998L80.7261 47.0928C80.991 47.6862 81.222 48.253 81.514 48.8444C81.7197 49.2609 81.8383 49.6971 82.0979 50.1167Z" fill="#113E66"/>
<path d="M45.9934 54.1922C46.0821 54.1807 46.2164 54.2319 46.2486 54.3255C46.9032 56.2237 47.5788 58.1164 48.2327 60.0155C48.3585 60.3811 48.8645 61.4492 48.7579 61.8121C48.5313 61.9228 45.4948 61.8711 45.0626 61.871L44.0366 61.8651C43.8803 61.1586 43.5414 60.2792 43.3306 59.5864C42.933 58.2801 42.4938 57.0504 42.1508 55.7244C42.9174 55.2091 45.0667 54.3918 45.9934 54.1922Z" fill="#113E66"/>
<path d="M29.3074 56.7455C29.5366 56.8009 30.2329 57.2552 30.48 57.3925C31.0722 57.7215 31.6684 58.0437 32.3165 58.2542C32.5276 58.3228 33.2229 58.4751 33.3195 58.6274C33.3105 58.8988 32.4897 61.5789 32.3169 61.8708C32.0943 61.8828 31.8252 61.8796 31.5986 61.8828L27.5647 61.8653C28.0155 60.2078 28.7328 58.3883 29.3074 56.7455Z" fill="#113E66"/>
</g>
<defs>
<clipPath id="clip0_45_2">
<rect width="83" height="23" fill="white" transform="translate(8 39)"/>
</clipPath>
</defs>
</svg>
