<svg width="193" height="104" viewBox="0 0 193 104" fill="none" xmlns="http://www.w3.org/2000/svg">
<path d="M57.5 38.5L36.5 66.5L95.5 76L57.5 38.5Z" fill="white" stroke="white"/>
<path d="M99 5L72 44L140.5 59L99 5Z" fill="white" stroke="white"/>
<path d="M142.192 34.6856L123.931 51.6468L164.523 63.177L142.192 34.6856Z" fill="white" stroke="white"/>
<path d="M68.6775 45.9846C69.2045 44.7832 70.1898 43.3549 70.8798 42.2335L76.0533 33.9623C80.208 27.2018 84.4566 20.4997 88.7982 13.8578C90.3945 11.4566 91.984 8.85905 93.7405 6.57612C95.0357 5.01858 96.1389 3.34015 98.365 3.19743C101.106 3.02169 102.226 4.00366 103.769 5.98935C105.657 8.41649 107.457 10.8391 109.285 13.2874L126.275 36.0938C127.134 37.2525 130.599 42.3286 131.389 42.9556L131.428 42.9855C132.968 40.4694 134.841 38.0543 136.683 35.7537C141.357 29.914 145.237 36.5616 148.077 40.1991C150.791 43.6386 153.47 47.1058 156.113 50.6003C161.833 58.0598 167.183 66.0658 174.995 71.4394C175.639 71.883 177.057 72.4722 177.577 73.0211C178.43 73.9225 182.606 74.7477 183.228 75.2844L183.152 75.4807C183.018 75.5242 182.883 75.5622 182.745 75.5944C171.786 78.1353 160.989 75.1312 151.653 69.2986C151.573 69.2049 150.803 68.7618 150.644 68.6663C150.538 68.5539 149.401 67.7384 149.203 67.5934C149.032 67.3953 147.908 66.5398 147.638 66.3257C146.895 65.7372 146.173 65.1224 145.473 64.4822C145.042 63.9281 143.159 62.0033 142.621 61.5717C142.671 62.0325 143.991 63.1254 144.29 63.5611C145.195 64.8843 145.566 66.4947 146.637 67.7844C146.787 67.9665 146.929 68.4855 147.108 68.6734C147.41 68.9219 147.794 69.0196 148.031 69.3807C147.944 70.1313 147.277 69.6822 147.301 70.5201C147.317 71.0695 146.713 71.3845 146.405 71.731L146.337 71.8294C145.2 72.0603 143.319 72.8583 142.162 73.2405C138.609 74.3911 134.968 76.1693 131.236 76.5436C123.885 77.2807 118.028 76.9156 111.03 74.5894C97.0426 69.94 86.0371 60.4677 75.4184 50.5882C74.5574 49.7872 72.0852 46.8117 70.942 47.7004C71.0758 48.8874 78.105 55.3466 79.4683 56.641C87.9785 64.7348 97.6298 71.8233 108.658 76.0513C109.548 76.393 110.505 76.6093 111.391 76.9335C120.371 80.2193 130.022 80.6476 139.438 81.6489C140.867 81.8007 142.33 81.7991 143.762 82.1273C149.68 83.4837 155.604 85.5429 160.256 89.5779C157.991 89.0091 154.644 87.5422 152.446 87.2391C147.167 86.5105 141.278 86.5051 136.029 87.5263C132.768 88.1607 129.293 89.4527 125.972 90.2303C123.658 90.7721 121.513 91.6589 119.019 92.0489C113.147 92.9671 108.124 93.1604 102.255 92.1879C99.8526 91.7898 97.975 91.1055 95.722 90.2958C92.7399 89.2265 89.8369 87.9483 87.0346 86.4707C77.5175 81.4497 69.4288 75.3857 58.0725 75.2658C45.4553 75.1328 35.4458 82.882 23.0047 83.4925C21.4324 83.5697 15.4041 83.1463 14.34 82.1353C14.32 81.7429 14.5025 81.8912 14.7939 81.7634C16.5464 80.9953 18.7759 79.5993 20.35 78.5712C27.7144 73.7611 32.9605 66.9222 38.1227 59.9501L47.581 46.999C49.6114 44.1992 51.7393 41.1693 53.9762 38.5558C59.5266 32.0707 65.0463 42.6875 68.6775 45.9846ZM72.5518 44.5229C74.1153 43.3694 75.7054 42.4796 77.2582 41.3376C79.383 39.7747 81.5505 38.227 83.5978 36.5639C85.7066 34.8272 87.7809 33.0491 89.8194 31.2305C91.0235 30.1637 92.2064 29.1207 93.4467 28.0903C94.544 27.1786 96.2559 26.9372 97.0724 28.3454C98.8219 31.3631 99.9023 34.8744 101.107 38.1396C101.552 39.3569 102.948 41.6553 103.605 42.6569C104.185 42.664 104.83 42.6882 105.402 42.6418C106.19 41.8416 106.835 40.8002 107.479 39.8831C108.815 37.9781 109.567 34.8255 112.479 36.3751C114.905 37.88 116.212 40.1306 118.098 42.2356C119.591 43.9026 120.967 45.78 122.48 47.4219C125.553 50.7585 129.201 53.515 133.249 55.5596C135.532 56.6859 137.593 57.4643 139.891 58.4477C135.431 53.2629 132.176 48.5365 128.142 43.2157L112.827 23.2731L106.412 14.9176C104.704 12.695 101.934 8.50505 99.8238 7.09195C99.273 7.0912 98.6159 7.072 98.076 7.12556C96.0645 8.3862 92.771 13.7279 91.348 15.8641L83.9796 27.1001L76.2475 39.0365C75.1257 40.7451 73.6013 42.8426 72.5518 44.5229ZM140.439 36.8759C138.89 37.2824 138.012 38.4279 137.107 39.6433C135.719 41.5083 134.322 43.3226 133.149 45.3375L133.099 45.4271C138.115 53.1598 145.275 60.9638 153.194 65.7826C156.674 67.9006 160.578 69.364 164.321 70.9349C165.523 71.4398 167.256 71.5625 168.484 72.0251C167.58 71.6975 166.249 71.277 165.415 70.9074C161.134 69.0113 156.976 66.7098 153.092 64.0966C152.021 63.3758 150.443 62.441 149.59 61.5182C145.589 58.7532 142.041 55.0253 138.787 51.4309C137.93 50.4841 135.118 47.8382 135.684 46.4314C135.998 45.6534 137.411 46.1802 137.914 46.6169C139.888 48.3287 141.022 51.5581 143.472 52.7255C144.599 51.1508 145.665 47.5224 148.108 49.7712C150.356 51.8411 152.064 54.1384 154.98 55.3997C156.134 55.8977 157.015 56.1846 158.123 56.8586C153.001 50.7736 148.203 44.2765 143.101 38.1704C142.47 37.4154 141.46 36.7863 140.439 36.8759ZM57.794 39.9369C57.3406 40.0332 56.6483 40.1567 56.3179 40.4655C54.6991 41.9783 53.4194 43.9513 52.1207 45.7097L40.6279 61.4966C39.9058 62.4699 37.3466 66.0738 36.629 66.7426C42.3856 64.2038 47.8089 61.4292 52.7778 57.5388C54.6985 56.0351 57.3673 53.7454 59.9141 54.8013C61.6015 55.501 62.8817 57.0585 64.2219 58.2649C65.0388 59.0011 65.9244 59.6571 66.8666 60.224C70.6855 62.4917 73.3691 62.8231 77.3763 63.9332C82.2338 65.2788 86.3491 70.5029 90.1496 73.6167C90.4005 73.8272 90.618 74.031 90.8852 74.223C91.2607 74.5216 91.651 74.8226 92.0154 75.1345C97.6412 79.9503 104.381 83.9314 111.429 86.2984C111.15 85.8938 107.747 84.5537 107.077 84.2214C103.677 82.5162 100.325 80.4225 97.325 78.084C87.3021 70.2715 78.8134 60.7512 70.1104 51.551C66.6622 47.9057 63.4343 44.0475 59.9604 40.4458C59.6634 40.1377 58.2584 39.8681 57.794 39.9369Z" fill="url(#paint0_linear_15_102)"/>
<defs>
<linearGradient id="paint0_linear_15_102" x1="80.9844" y1="62.5" x2="240" y2="86.5" gradientUnits="userSpaceOnUse">
<stop stop-color="#DCEBFE"/>
<stop offset="1" stop-color="white" stop-opacity="0.3"/>
</linearGradient>
</defs>
</svg>
