<svg width="84" height="85" viewBox="0 0 84 85" fill="none" xmlns="http://www.w3.org/2000/svg">
<path d="M41.1436 14.1193C42.228 14.1527 42.7288 14.8589 42.8699 15.8648C43.4527 20.0212 44.5494 23.6726 46.6744 27.3018C50.6485 34.1608 57.9015 37.0452 65.3468 38.3573C67.9455 38.957 67.7898 41.1927 65.107 41.587C54.2144 43.1884 46.8383 49.0741 43.8216 59.9205C43.593 60.722 43.4004 61.5335 43.2445 62.3522C42.9909 63.7547 43.0839 65.1862 41.7259 65.9332C39.7263 66.6308 39.4838 62.3498 39.1575 61.0237C36.8636 51.6993 31.9579 45.3812 22.4366 42.6717C21.4813 42.3903 20.5153 42.147 19.5407 41.9426C18.6334 41.7496 17.5303 41.575 16.6837 41.2403C15.4772 40.7633 15.5547 39.0413 16.8355 38.6221C17.9246 38.2657 18.9625 38.1457 20.0654 37.915C24.7662 36.9313 29.1753 34.9494 32.6816 31.6155C36.3501 28.0092 38.5096 23.2339 39.3978 18.2118C39.593 17.1081 39.7591 15.8516 40.1657 14.8068C40.3196 14.4111 40.7748 14.243 41.1436 14.1193Z" fill="url(#paint0_linear_20_166)"/>
<path d="M65.3587 4.91635C66.7253 4.83343 66.9447 6.90851 67.1218 7.88571C68.0685 13.1094 71.7201 15.8014 76.7008 16.9289C77.8404 17.1868 78.5439 18.2757 77.2466 18.986C76.3619 19.4704 75.2204 19.6347 74.2464 19.9519C73.6083 20.1645 72.9885 20.4288 72.3934 20.7421C69.7932 22.1086 68.4942 24.206 67.6344 26.9711C67.2571 28.1849 67.0979 30.5708 65.951 31.1642C64.5798 31.0938 64.6078 30.0191 64.3288 28.9119C64.1007 28.0066 63.9538 27.1606 63.628 26.2739C63.2347 25.1913 62.6622 24.1827 61.9345 23.29C61.0318 22.201 60.0799 21.4464 58.8285 20.8011C57.8784 20.3172 56.8827 19.9287 55.856 19.6413C54.9209 19.3767 53.0728 19.2304 53.377 17.8438C53.4916 17.2632 54.2523 16.9991 54.7643 16.8944C59.1337 15.9932 62.3556 13.6243 63.6523 9.21213C64.0449 7.87631 64.1114 5.62071 65.3587 4.91635Z" fill="url(#paint1_linear_20_166)"/>
<path d="M16.6164 49.541C18.0753 49.5253 18.1471 51.2002 18.3852 52.3539C19.017 55.4163 20.6628 57.7564 23.4545 59.2216C24.5258 59.9079 27.3262 60.1838 28.1244 61.0374C29.5366 62.5476 24.6838 63.3483 24.0281 63.7109C22.9568 64.3032 22.2538 64.4764 21.4335 65.3356C20.4434 66.3728 19.806 67.3157 19.2732 68.6218C18.5875 69.9624 18.5144 72.9004 17.3318 73.6547C16.8047 73.6986 16.4304 73.6365 16.2368 73.0978C15.7586 71.7668 15.5794 70.3782 15.0644 69.0459C14.6987 68.1044 14.2031 67.2187 13.5922 66.4143C11.8086 64.1134 8.99833 63.2786 6.32467 62.5879C5.93829 62.4964 5.50726 61.7961 5.65851 61.4288C5.95958 60.7002 7.01654 60.4101 7.72229 60.2434C10.3323 59.6269 12.2811 58.5097 13.812 56.2539C15.0805 54.3848 15.2972 52.2372 16.0041 50.1539C16.1163 49.823 16.3237 49.7042 16.6164 49.541Z" fill="url(#paint2_linear_20_166)"/>
<path d="M20.9853 11.6694C22.2309 11.5661 23.436 12.1399 24.141 13.172C24.846 14.2041 24.9422 15.5354 24.3929 16.6581C23.8436 17.7808 22.7336 18.5219 21.486 18.5988C19.5855 18.7159 17.9448 17.2811 17.8075 15.3818C17.6703 13.4825 19.0876 11.8268 20.9853 11.6694Z" fill="url(#paint3_linear_20_166)"/>
<path d="M71.8119 47.5012C73.6419 47.2452 75.3358 48.5133 75.6057 50.3413C75.8755 52.1693 74.6202 53.8728 72.7943 54.1564C70.9487 54.4431 69.223 53.1715 68.9502 51.3238C68.6775 49.4761 69.9622 47.76 71.8119 47.5012Z" fill="url(#paint4_linear_20_166)"/>
<path d="M37.4815 72.3667C39.3107 72.0869 41.0208 73.3414 41.303 75.1702C41.5852 76.999 40.3329 78.7107 38.5045 78.9953C36.6727 79.2805 34.9571 78.0253 34.6744 76.1932C34.3916 74.361 35.6491 72.647 37.4815 72.3667Z" fill="url(#paint5_linear_20_166)"/>
<defs>
<linearGradient id="paint0_linear_20_166" x1="41.5176" y1="14.1193" x2="41.5176" y2="66.0095" gradientUnits="userSpaceOnUse">
<stop stop-color="#DFEAFB"/>
<stop offset="1" stop-color="white"/>
</linearGradient>
<linearGradient id="paint1_linear_20_166" x1="65.6441" y1="4.91394" x2="65.6441" y2="31.1642" gradientUnits="userSpaceOnUse">
<stop stop-color="#DFEAFB"/>
<stop offset="1" stop-color="white"/>
</linearGradient>
<linearGradient id="paint2_linear_20_166" x1="17.0041" y1="49.5409" x2="17.0041" y2="73.6661" gradientUnits="userSpaceOnUse">
<stop stop-color="#DFEAFB"/>
<stop offset="1" stop-color="white"/>
</linearGradient>
<linearGradient id="paint3_linear_20_166" x1="21.2723" y1="11.6575" x2="21.2723" y2="18.6055" gradientUnits="userSpaceOnUse">
<stop stop-color="#DFEAFB"/>
<stop offset="1" stop-color="white"/>
</linearGradient>
<linearGradient id="paint4_linear_20_166" x1="72.2779" y1="47.4684" x2="72.2779" y2="54.1968" gradientUnits="userSpaceOnUse">
<stop stop-color="#DFEAFB"/>
<stop offset="1" stop-color="white"/>
</linearGradient>
<linearGradient id="paint5_linear_20_166" x1="37.9887" y1="72.3276" x2="37.9887" y2="79.0357" gradientUnits="userSpaceOnUse">
<stop stop-color="#DFEAFB"/>
<stop offset="1" stop-color="white"/>
</linearGradient>
</defs>
</svg>
