<svg width="109" height="106" viewBox="0 0 109 106" fill="none" xmlns="http://www.w3.org/2000/svg">
<path d="M56.1071 10.0555C67.5418 8.76507 77.8594 16.9837 79.1584 28.4174C80.4573 39.8512 72.2463 50.1749 60.8136 51.4825C49.3689 52.7914 39.0318 44.5698 37.7314 33.124C36.431 21.6783 44.6603 11.3473 56.1071 10.0555Z" fill="#D7E4F9"/>
<path d="M57.4062 13.3009C67.0728 12.7475 75.3545 20.1421 75.8953 29.8094C76.4361 39.4767 69.0306 47.7488 59.3627 48.277C49.7125 48.8042 41.459 41.4154 40.9191 31.7659C40.3794 22.1164 47.7574 13.8532 57.4062 13.3009Z" fill="url(#paint0_linear_20_173)"/>
<path d="M49.7621 25.6878C50.1989 25.6613 50.636 25.6407 51.0733 25.6261C52.6665 25.5794 53.8599 26.0191 54.7871 27.3614C55.123 27.8477 55.3662 28.1314 55.3774 28.7536C55.2313 29.1228 55.2115 29.2041 54.922 29.485C53.2596 30.0208 52.752 26.0201 49.1697 28.1841C48.6775 28.9369 48.2508 29.7878 48.1558 30.6919C47.8572 33.5323 50.0794 36.5259 52.8914 34.2243C53.4224 33.4255 53.4543 32.9336 54.5917 33.254C54.9762 33.3623 55.1388 33.4084 55.3652 33.7789C55.4383 34.0815 55.4031 34.3286 55.2503 34.5918C54.0309 36.6933 51.6786 37.5577 49.4071 36.8022C45.8113 35.6062 45.1601 30.9118 46.7682 27.9351C47.4178 26.7328 48.4804 26.0281 49.7621 25.6878Z" fill="#D7E4F9"/>
<path d="M59.5383 28.3915C64.6019 27.8132 63.4407 33.4297 63.33 36.7489C62.9692 36.7492 62.0373 36.8162 61.7937 36.6577C61.7353 36.4265 61.7258 36.246 61.5457 36.1099C60.9396 36.1614 60.49 36.9294 59.6838 37.0719C58.6966 37.2464 57.7098 36.7219 56.9207 36.1924C56.2098 35.3962 56.4027 34.3047 56.4152 33.1946C58.0364 31.5942 59.1813 31.773 61.2933 31.7628L61.2691 30.3113C60.94 30.2704 59.3288 30.0892 59.0753 30.3021C58.6245 30.6807 57.9144 31.4367 57.2445 31.1743C56.8811 30.8847 56.8074 30.0642 57.0446 29.6816C57.6127 28.7659 58.5581 28.5855 59.5383 28.3915Z" fill="#D7E4F9"/>
<path d="M59.7038 33.1545C60.228 33.1183 60.9763 33.0073 61.3951 33.2479C61.6903 33.9357 60.8484 35.0041 60.3477 35.4381C58.39 35.3618 57.6711 33.9393 59.7038 33.1545Z" fill="url(#paint1_linear_20_173)"/>
<path d="M65.9961 23.71C67.2817 23.7986 68.3151 24.5985 68.179 25.9683C68.0449 27.3197 66.698 28.1928 65.7255 28.9797C66.4461 28.9698 68.178 28.7634 68.492 29.4455L68.3653 29.7849C67.87 30.1304 65.7075 30.0605 64.9104 30.1142C62.2174 29.6413 66.7152 27.3013 66.8944 25.7907C66.3608 24.1552 65.4085 25.9818 64.6087 26.1797C64.2223 26.1192 64.3522 26.1896 64.0964 25.938C63.6704 24.6116 64.9744 24.0506 65.9961 23.71Z" fill="#D7E4F9"/>
<path d="M71.0248 24.7874C72.183 25.0054 71.6575 25.7692 71.7656 26.4779C71.8731 27.1808 72.8079 26.6123 73.2823 26.9479C73.3573 27.27 73.3756 27.3214 73.2813 27.6351C72.9915 27.8177 72.4438 27.6941 71.9601 27.728C71.3367 28.2598 72.0464 28.569 71.7933 29.3562C71.5967 29.6895 71.4811 29.7123 71.1269 29.8661C70.3522 29.2253 70.529 28.6605 70.5393 27.7192C70.0105 27.6989 69.1546 27.809 68.9531 27.24C69.2788 26.7539 70.0723 26.8583 70.6076 26.8565C70.506 25.9383 70.2867 25.4593 71.0248 24.7874Z" fill="#D7E4F9"/>
<path d="M19.0805 39.9686C28.9195 39.1551 37.5659 46.4463 38.4255 56.2813C39.2851 66.1164 32.0347 74.7969 22.2038 75.7027C12.3074 76.6145 3.55631 69.3052 2.69097 59.4046C1.82563 49.504 9.17597 40.7874 19.0805 39.9686Z" fill="#D7E4F9"/>
<path d="M19.0084 43.276C24.2567 42.7173 29.4005 45.0215 32.4775 49.3097C35.5545 53.5979 36.0902 59.2087 33.8801 64.0017C31.6702 68.7946 27.0553 72.0305 21.7962 72.475C13.7867 73.1519 6.72465 67.256 5.96069 59.2543C5.19675 51.2527 11.0156 44.127 19.0084 43.276Z" fill="url(#paint2_linear_20_173)"/>
<path d="M16.3942 54.2388C16.5603 54.2333 16.7264 54.229 16.8925 54.2258C17.3747 54.2169 17.7699 54.1586 18.1338 54.5099C18.3784 55.3374 18.25 61.0363 18.235 62.3622L16.6624 62.3259C16.5247 61.379 16.5809 60.1629 16.5993 59.185L16.633 57.1386C14.9528 60.4286 14.4548 64.1331 12.2971 58.4628C12.1393 58.0478 11.871 57.5271 11.6822 57.1137C11.7567 58.9605 11.8876 60.4359 11.7213 62.3111C11.1757 62.3797 10.7112 62.3478 10.1661 62.3271C10.1706 59.9123 10.0545 57.1733 10.196 54.756C10.2063 54.5795 10.3358 54.4003 10.4563 54.2707C10.9165 54.2348 11.4958 54.2432 11.9663 54.237C12.7607 55.8788 13.4292 57.576 14.2656 59.2776C14.7426 57.8165 15.7484 55.7227 16.3942 54.2388Z" fill="#D7E4F9"/>
<path d="M22.3137 56.4793L22.5252 56.4827C23.2888 57.1128 23.3319 56.3553 24.2752 56.4277C24.3912 56.4366 24.6489 56.5728 24.679 56.6859C24.9903 57.8546 24.81 62.7911 24.5958 63.7276C24.5344 63.8069 24.4697 63.8835 24.4018 63.9573C23.3868 65.065 22.3904 64.8182 20.8694 64.8859C20.1216 64.5229 19.124 63.9277 19.6204 62.9751C20.6165 62.7892 20.6228 62.9132 21.2965 63.5666C22.254 63.4673 23.4269 63.4592 23.1592 62.0591C22.8928 61.9362 21.3531 62.3848 20.9091 62.4392C18.4384 61.0995 18.4215 57.8474 20.8691 56.4847C21.3822 56.5046 21.8041 56.4956 22.3137 56.4793Z" fill="#D7E4F9"/>
<path d="M21.6054 57.7534C23.2465 57.7506 23.5805 59.1241 23.0448 60.5093C22.8905 60.9084 22.6266 60.9514 22.2514 61.0802C22.0661 61.0609 21.8814 61.0363 21.6976 61.0066C20.302 60.7713 20.3487 58.5474 21.6054 57.7534Z" fill="url(#paint3_linear_20_173)"/>
<path d="M26.6458 52.8932C27.0861 52.8751 27.4363 52.8533 27.8597 53.0068C30.116 53.825 28.0272 55.9602 27.1459 57.0518C27.9701 56.9885 28.2148 56.8567 28.9726 57.2689L29.0461 57.5453C28.4965 58.1506 27.0426 57.9919 26.2671 57.9656L25.7164 57.9459C25.4187 57.7549 25.4937 57.8614 25.4056 57.5587C25.6233 56.4438 27.7962 55.4561 27.6473 54.2364C27.4768 53.9604 27.4021 53.9475 27.1014 53.8383C26.4908 53.9307 26.1088 54.8184 25.5494 54.6536C25.1095 53.6815 25.8255 53.1658 26.6458 52.8932Z" fill="#D7E4F9"/>
<path d="M31.0523 53.8453C31.365 53.8282 31.4242 53.8256 31.728 53.8962C32.0024 54.186 31.8949 54.3271 31.9066 54.8429C32.3169 55.494 32.9109 54.9313 33.2282 55.6211C33.107 56.2352 32.5 56.13 31.9903 56.1513C31.9304 56.8856 32.0171 57.3522 31.3956 57.8276C30.2634 57.3061 31.0536 57.0488 30.5513 56.2993C30.5078 56.2344 29.5843 56.2617 29.2857 55.9244C29.2578 55.639 29.298 55.6782 29.4692 55.3975C29.7869 55.2125 30.3723 55.262 30.7632 55.2613C30.7379 54.7033 30.595 54.1951 31.0523 53.8453Z" fill="#D7E4F9"/>
<path d="M52.5118 68.5031C61.6746 67.8246 69.6559 74.6949 70.3482 83.8567C71.0406 93.0185 64.1824 101.01 55.0217 101.716C45.8413 102.424 37.8288 95.5479 37.135 86.3665C36.4411 77.1851 43.3294 69.183 52.5118 68.5031Z" fill="#D7E4F9"/>
<path d="M53.3383 71.6504C60.772 71.4188 66.9942 77.2403 67.2571 84.6729C67.5202 92.1056 61.725 98.3523 54.2935 98.6467C46.8175 98.9429 40.5251 93.1054 40.2606 85.6282C39.9961 78.151 45.8601 71.8834 53.3383 71.6504Z" fill="url(#paint4_linear_20_173)"/>
<path d="M55.1398 83.7483C55.2209 83.7449 55.302 83.7423 55.383 83.7404C56.9083 83.7041 58.7329 83.8142 58.8253 85.809C58.8916 87.2375 58.8223 88.7296 58.8021 90.164C57.8992 90.2198 58.0237 90.2335 57.2311 89.8022C56.7972 89.8325 56.725 89.9786 56.3239 90.2567C55.8322 90.2923 55.2919 90.2708 54.7953 90.263L54.0029 89.7911C53.5786 89.3305 53.4533 89.056 53.3886 88.459C53.1047 85.8384 56.596 86.5791 57.1892 85.8616L57.1575 85.6325C56.1425 84.5399 54.7945 86.084 53.7455 85.5933C53.3452 84.871 54.6309 84.0365 55.1398 83.7483Z" fill="#D7E4F9"/>
<path d="M56.2393 87.4016C56.4861 87.3857 56.7074 87.3909 56.9536 87.3939C57.2183 87.6313 57.1372 87.509 57.2258 87.9079C57.0854 88.6519 56.6413 88.9573 55.9575 89.0672C55.3717 88.9937 55.0836 88.9107 54.8765 88.3346C54.9816 87.5923 55.6148 87.4758 56.2393 87.4016Z" fill="url(#paint5_linear_20_173)"/>
<path d="M50.9378 87.5802C50.8836 86.5487 50.5664 82.3899 51.0163 81.791C51.4122 81.607 52.0234 81.7321 52.4631 81.7943C52.4434 83.0408 52.5934 89.5954 52.2528 90.1206C50.7477 91.0821 49.6574 88.2771 48.931 87.2582L49.0014 87.1943C49.4734 86.7747 49.6189 86.692 50.1751 86.3958C50.4774 86.8206 50.6771 87.1288 50.9378 87.5802Z" fill="#D7E4F9"/>
<path d="M45.566 81.8164C46.0207 81.7515 46.6912 81.7081 47.1631 81.6644C47.6111 82.2551 48.3993 83.524 48.7959 84.1684C48.4703 84.2671 47.8872 84.8493 47.5099 85.0969L47.4808 85.014L47.3568 84.9614C47.0202 85.6009 47.671 89.2902 46.8294 90.1007C46.5192 90.3994 45.9973 90.1888 45.7139 89.9282C45.3437 89.0702 45.4971 83.0573 45.566 81.8164Z" fill="#D7E4F9"/>
<path d="M60.6034 80.8781C60.9598 80.9172 61.1387 80.9092 61.4209 81.1294C61.6714 81.4555 61.6666 82.0429 61.7053 82.4736C62.3293 82.5142 62.8055 82.433 63.1413 83.0505C63.0803 83.857 62.3222 83.7447 61.705 83.7438C61.7096 84.3902 61.7893 84.9219 61.3845 85.4204C61.089 85.4285 60.9109 85.4557 60.6374 85.3304C60.2901 84.8372 60.3971 84.3272 60.4078 83.6844C59.804 83.6503 59.2184 83.7602 58.8553 83.2116C58.9096 82.4454 59.845 82.5767 60.4241 82.5836C60.4469 81.8941 60.4485 81.5543 60.6034 80.8781Z" fill="#D7E4F9"/>
<path d="M47.5098 85.0969C47.8871 84.8493 48.4702 84.2671 48.7959 84.1683C49.3507 84.9681 49.6987 85.5442 50.1751 86.3958C49.619 86.692 49.4734 86.7748 49.0014 87.1943L48.931 87.2582C48.4218 86.5405 47.9293 85.874 47.5098 85.0969Z" fill="#D7E4F9"/>
<path d="M87.94 48.9486C96.5774 47.9237 104.405 54.1083 105.406 62.7485C106.407 71.3889 100.201 79.1995 91.5579 80.1765C82.9488 81.1499 75.1752 74.9731 74.1782 66.3666C73.181 57.76 79.3363 49.9695 87.94 48.9486Z" fill="#D7E4F9"/>
<path d="M88.4895 51.9571C95.4882 51.2494 101.729 56.3655 102.408 63.3671C103.086 70.3686 97.9444 76.5881 90.9401 77.2377C83.9767 77.8837 77.8015 72.7784 77.1268 65.8177C76.452 58.8571 81.5317 52.6607 88.4895 51.9571Z" fill="url(#paint6_linear_20_173)"/>
<path d="M85.3005 60.6624C87.5007 60.6474 86.6949 62.6521 86.762 64.4708C87.9392 63.1834 88.7812 61.9864 90.0652 60.7052L91.8337 60.7841C90.9453 62.053 89.8677 63.2626 88.8938 64.4877C89.5063 65.6381 90.7551 67.2202 91.5754 68.3177C91.8662 68.6936 92.2637 69.0134 92.0109 69.4586C91.6321 69.6435 90.8325 69.5755 90.3759 69.5685C89.2837 68.2473 88.531 67.1471 87.6038 65.7293L86.6663 66.8406C86.7616 67.5984 87.0203 68.8286 86.5993 69.4241C86.2087 69.7436 85.4921 69.6136 85.1176 69.3163C84.6128 68.3003 84.9538 62.6947 84.9911 61.2531C84.9967 61.0371 85.1451 60.8165 85.3005 60.6624Z" fill="#D7E4F9"/>
<path d="M94.4419 59.7695C95.7416 60.1481 94.9154 60.5464 95.3052 61.3842C95.8842 61.4742 96.6204 61.512 96.9118 62.0557C96.8515 62.3765 96.7437 62.4462 96.5135 62.6662C96.1921 62.8073 95.5832 62.7409 95.2082 62.727C95.2249 63.4352 95.3649 64.0108 94.8172 64.5253C93.8683 64.236 94.0827 63.5717 94.105 62.7192C93.4437 62.7622 92.6505 62.9287 92.4995 62.0525C92.6911 61.1991 93.5024 61.4286 94.1179 61.5344C94.1388 60.959 94.0893 60.1904 94.4419 59.7695Z" fill="#D7E4F9"/>
<path d="M82.2037 89.7123C84.1085 89.4547 85.8632 90.7854 86.1289 92.6891C86.3946 94.5928 85.0713 96.3531 83.1687 96.6268C81.2548 96.902 79.4818 95.569 79.2145 93.654C78.9472 91.7391 80.2876 89.9716 82.2037 89.7123Z" fill="#D7E4F9"/>
<path d="M92.2379 35.6108C94.132 35.5354 95.7346 36.9977 95.8323 38.8909C95.9299 40.7841 94.4865 42.4036 92.5946 42.5236C91.3508 42.6024 90.1607 42.0065 89.4787 40.9634C88.7967 39.9204 88.7281 38.5911 89.2991 37.4834C89.8701 36.3757 90.9926 35.6604 92.2379 35.6108Z" fill="#D7E4F9"/>
<path d="M20.527 84.531C21.7193 84.3715 22.9052 84.8656 23.6316 85.8243C24.3579 86.7831 24.5125 88.0584 24.0362 89.1629C23.5599 90.2675 22.5265 91.0306 21.3307 91.1606C19.5132 91.3582 17.8747 90.0575 17.6548 88.2427C17.4348 86.4278 18.715 84.7733 20.527 84.531Z" fill="#D7E4F9"/>
<defs>
<linearGradient id="paint0_linear_20_173" x1="58.4072" y1="13.2717" x2="58.4072" y2="48.3036" gradientUnits="userSpaceOnUse">
<stop stop-color="#EBF2FF"/>
<stop offset="1" stop-color="white"/>
</linearGradient>
<linearGradient id="paint1_linear_20_173" x1="59.9715" y1="33.0973" x2="59.9715" y2="35.4381" gradientUnits="userSpaceOnUse">
<stop stop-color="#EBF2FF"/>
<stop offset="1" stop-color="white"/>
</linearGradient>
<linearGradient id="paint2_linear_20_173" x1="20.5606" y1="43.1934" x2="20.5606" y2="72.5279" gradientUnits="userSpaceOnUse">
<stop stop-color="#EBF2FF"/>
<stop offset="1" stop-color="white"/>
</linearGradient>
<linearGradient id="paint3_linear_20_173" x1="21.9688" y1="57.7534" x2="21.9688" y2="61.0802" gradientUnits="userSpaceOnUse">
<stop stop-color="#EBF2FF"/>
<stop offset="1" stop-color="white"/>
</linearGradient>
<linearGradient id="paint4_linear_20_173" x1="53.7588" y1="71.6437" x2="53.7588" y2="98.6575" gradientUnits="userSpaceOnUse">
<stop stop-color="#EBF2FF"/>
<stop offset="1" stop-color="white"/>
</linearGradient>
<linearGradient id="paint5_linear_20_173" x1="56.0512" y1="87.3906" x2="56.0512" y2="89.0672" gradientUnits="userSpaceOnUse">
<stop stop-color="#EBF2FF"/>
<stop offset="1" stop-color="white"/>
</linearGradient>
<linearGradient id="paint6_linear_20_173" x1="89.7672" y1="51.8917" x2="89.7672" y2="77.2928" gradientUnits="userSpaceOnUse">
<stop stop-color="#EBF2FF"/>
<stop offset="1" stop-color="white"/>
</linearGradient>
</defs>
</svg>
