<svg width="88" height="85" viewBox="0 0 88 85" fill="none" xmlns="http://www.w3.org/2000/svg">
<path d="M78.2115 1.27884C78.4485 1.23955 78.697 1.24677 78.9363 1.26165C79.6286 1.29802 80.2755 1.61719 80.7257 2.14441C81.5533 3.09617 82.8331 7.96725 83.1921 9.4438C84.4812 14.8082 85.0731 20.3167 84.951 25.8324C84.9311 27.0536 84.9403 28.3761 84.8415 29.5807C83.349 47.7415 72.6184 63.3231 54.0272 66.8929C52.1592 67.2104 50.0767 67.4678 48.1949 67.5354C45.4152 67.6353 43.2951 67.0506 42.1588 70.2986C41.5357 72.0794 41.1218 73.7252 40.8259 75.6042C40.5561 77.317 40.5701 80.3545 38.1318 80.2292C36.1543 80.0177 36.1839 78.1192 35.6454 76.6939C34.7087 74.2146 33.1782 70.7373 31.0595 69.1185C29.8773 68.2152 27.0459 68.0799 25.536 67.8063C19.5938 66.7295 13.6146 63.9463 9.89977 59.0384C4.85018 52.5272 3.1643 43.7381 4.17233 35.6738C4.31929 34.2444 4.95786 28.8418 6.51159 28.4818C9.2206 27.8542 14.7046 29.5501 17.3088 30.5025C24.1216 32.9939 30.484 37.6218 33.5978 44.3164C36.5467 50.5222 37.1634 57.4125 35.2209 63.9848C34.8003 65.4079 34.3657 66.1737 33.8829 67.4857C34.0657 67.793 34.6353 68.5127 34.8808 68.8183C36.2832 70.5637 36.9827 72.7104 38.0836 74.5546C38.2254 72.6925 38.8605 70.6702 39.5569 68.9524C40.0407 67.7589 40.9195 66.2865 40.9561 64.952C41.0156 62.7822 40.057 60.1823 39.5203 58.0045C38.6267 54.3782 38.1368 51.7084 37.7862 48.0498C36.7395 37.1237 39.3959 26.5319 46.7829 18.1533C53.1629 10.9168 62.8112 5.72208 71.9617 2.85901C73.6333 2.33597 76.4843 1.40413 78.2115 1.27884Z" fill="#DCE7FA"/>
<path d="M78.2394 4.15308C78.3317 4.16803 78.3766 4.21375 78.4601 4.26884C79.7096 6.7826 80.869 12.7758 81.3093 15.6595C83.0983 27.3805 81.6085 40.5883 74.6263 50.4342C68.3349 59.3063 58.6793 64.2907 47.8849 64.528C46.7566 64.5528 45.2246 64.4777 44.1604 64.6518C45.1988 61.7884 46.0029 59.0915 47.1543 56.244C50.7589 47.1872 56.3249 39.0411 63.4521 32.3911C64.1584 31.7812 64.8416 31.2348 65.3944 30.4825C65.5209 29.2302 65.4005 28.1081 63.8312 28.4569C62.7053 28.7072 60.6052 31.1135 59.754 31.972C54.0524 37.6148 49.3794 44.2092 45.9449 51.4586C45.2484 52.9465 44.5972 54.4551 43.9921 55.9825C43.7787 56.5358 43.14 58.5623 42.9524 58.8488L42.8444 58.8415C42.7928 58.747 42.7346 58.6309 42.7073 58.5263C39.8942 47.7009 39.2003 36.437 44.7019 26.2293C50.1348 16.1488 61.2274 9.63431 71.7943 6.01135C73.9039 5.28803 76.0838 4.78418 78.2394 4.15308Z" fill="#F5F8FB"/>
<path d="M8.01615 31.2739C17.7327 32.5767 27.9964 37.4817 31.6559 47.2189C33.1519 51.1513 33.661 55.3904 33.1389 59.5652C32.9603 61.1137 32.8085 62.1957 32.1628 63.619C29.8685 57.2399 26.2247 51.0676 21.1698 46.489C20.1401 45.5563 18.6575 43.7202 17.1871 44.2479C16.6352 44.7026 16.554 44.9564 16.2803 45.6005C16.7461 46.8231 18.277 47.8039 19.2608 48.7089C20.9325 50.2303 22.4358 51.9271 23.7446 53.77C26.7844 57.9797 27.7804 60.8074 29.7638 65.4425C22.1963 64.8107 14.5944 61.8855 10.6617 54.9879C8.06137 50.4271 6.97984 45.8785 6.97083 40.6468C6.96497 37.242 7.15258 34.604 8.01615 31.2739Z" fill="#F5F8FB"/>
</svg>
