<svg preserveAspectRatio="none" width="100%" height="100%" overflow="visible" style="display: block;" viewBox="0 0 235 65" fill="none" xmlns="http://www.w3.org/2000/svg">
<g id="image 39 [Vectorized]" clip-path="url(#clip0_0_17)">
<path id="Vector" d="M0.711959 0.55392C9.21321 0.410364 17.7712 0.603576 26.2738 0.577865C36.2865 0.54749 44.9219 7.86479 45.2731 18.1382C45.3884 21.9156 44.1884 25.6155 41.8787 28.6036C41.1084 29.5834 40.1598 30.4746 39.2989 31.3954C39.8525 31.8804 40.4517 32.2254 41.06 32.6344C48.3332 37.5242 49.6625 48.9653 44.7467 55.9637C43.8689 57.2663 43.4201 57.8138 42.2746 58.9249C39.7594 61.3503 36.6625 63.085 33.283 63.9617C29.4965 64.9137 21.589 64.6408 17.3601 64.6398C11.8748 64.6386 6.01973 64.7095 0.552958 64.612C0.323503 49.5028 0.529079 33.8078 0.530538 18.6521L0.520662 7.12408C0.519241 5.68247 0.436633 1.74547 0.711959 0.55392ZM13.1351 52.7977C16.1966 52.7644 19.2584 52.7551 22.32 52.7698C24.8109 52.7684 27.9725 52.9322 30.3573 52.3389C31.1613 52.139 31.8979 51.4243 32.5135 50.8736C35.5346 48.5341 35.6151 43.1904 33.4153 40.28C31.0263 37.1194 26.3949 37.7329 22.8961 37.7498L13.1059 37.7634C13.0869 42.7749 13.0966 47.7863 13.1351 52.7977ZM13.1777 26.363C15.7738 26.4262 25.9867 26.7522 27.8869 26.1533C28.9481 25.8188 29.8333 25.051 30.6565 24.3326C33.2436 21.6405 33.1145 16.6894 30.4381 14.1112C29.6668 13.3622 28.7051 12.8397 27.6578 12.6004C26.3691 12.2951 24.9074 12.3338 23.5839 12.3555C20.1924 12.4112 16.7598 12.3047 13.3723 12.3993C13.2823 12.4024 13.1922 12.4065 13.1024 12.4118C13.1641 17.0159 12.9969 21.7826 13.1777 26.363Z" fill="var(--fill-0, #113E66)"/>
<path id="Vector_2" d="M144.057 0.461649C147.341 0.605708 150.685 0.489 153.971 0.512316C155.496 0.523156 157.768 0.425099 159.225 0.652973C160.117 1.87477 160.709 4.16889 161.2 5.61528L163.42 12.0424L176.144 48.1332L180.389 60.1912C180.857 61.5132 181.299 63.3927 181.869 64.5764C180.099 64.7219 177.879 64.65 176.069 64.6423C173.477 64.6471 170.887 64.6307 168.295 64.5933C166.76 60.5817 165.591 56.2485 164.283 52.1498L157.441 30.6718C156.636 28.0886 155.812 25.5124 155.018 22.9264C154.541 21.3736 154.124 19.828 153.506 18.3224C152.933 16.2815 152.387 14.3293 151.716 12.3155L139.784 49.6789C139.127 51.7185 138.59 53.723 137.869 55.7639C136.908 58.4892 136.273 61.8407 134.984 64.4197C134.455 64.7802 122.892 64.6746 121.445 64.5832C121.716 63.5592 122.097 62.6633 122.438 61.6693L124.655 55.2726L132.382 33.2766L140.56 9.77953C141.539 6.96324 142.511 4.1002 143.475 1.27736C143.601 0.908322 143.725 0.667214 144.057 0.461649Z" fill="var(--fill-0, #113E66)"/>
<path id="Vector_3" d="M63.4551 41.1421C64.3768 38.643 65.2826 35.7855 66.1571 33.2507L71.1535 19.1584C72.3058 15.8834 73.3622 12.5886 74.5746 9.33059C75.5587 6.68584 76.1926 3.70155 77.4801 1.20527C77.6461 0.88325 77.7643 0.749399 78.1148 0.644536C78.8797 0.41578 90.3008 0.429266 91.9142 0.50703C92.2584 0.523667 92.773 0.544841 93.065 0.726207C93.6485 1.08856 94.235 3.21215 94.5118 3.94505C95.0813 5.45321 95.5257 6.99337 96.0542 8.51438L99.8515 19.2862C100.58 21.3337 101.274 23.2964 101.953 25.361C102.672 27.5482 103.572 29.5034 104.156 31.7713C105.614 32.0546 107.439 32.4075 108.841 32.8746C112.258 34.0128 117.91 37.4539 120.241 40.1294C116.576 38.0417 115.561 37.1233 111.272 35.9819C104.662 34.223 99.0034 34.9609 92.5047 36.7822C89.8227 37.4893 77.9365 42.5757 78.4119 45.6334C79.726 46.2143 100.08 35.3875 110.194 39.5074C106.745 40.1876 104.943 40.4848 101.64 41.8101C92.3443 45.539 84.5388 54.1843 73.693 52.5306C68.8383 51.7904 64.1303 49.4809 60.0843 46.7572C56.6382 44.4485 53.4745 41.7428 50.6575 38.6957C51.6674 39.0322 53.5795 39.6971 54.4286 39.9835C55.6321 40.3896 62.777 41.6978 63.3908 41.4248L63.4551 41.1421ZM77.4393 37.8011C78.805 36.9981 80.2219 36.664 81.619 36.0569C84.154 34.9553 86.6877 34.1154 89.2522 33.1103C90.1304 32.7661 90.984 32.7343 91.7975 32.3164C90.3199 27.04 88.3061 21.6841 86.8473 16.3806C86.4796 15.0438 85.8854 13.7977 85.5619 12.4243C85.1145 13.9885 84.6004 15.2436 84.1332 16.7398L79.1384 32.6804C78.5929 34.4102 77.9571 36.0339 77.4393 37.8011Z" fill="var(--fill-0, #113E66)"/>
<path id="Vector_4" d="M91.7975 32.3164C92.2479 32.3089 94.6068 31.8618 95.1308 31.7595C98.2008 31.1607 101.077 31.1059 104.156 31.7713C105.614 32.0546 107.439 32.4075 108.841 32.8746C112.257 34.0128 117.91 37.4539 120.241 40.1294C116.576 38.0417 115.561 37.1233 111.272 35.9819C104.662 34.223 99.0034 34.9609 92.5047 36.7822C89.8227 37.4893 77.9365 42.5757 78.4119 45.6334C79.726 46.2143 100.08 35.3875 110.194 39.5074C106.745 40.1876 104.943 40.4848 101.64 41.8101C92.3443 45.539 84.5388 54.1843 73.693 52.5306C68.8383 51.7904 64.1303 49.4809 60.0843 46.7572C56.6382 44.4485 53.4745 41.7428 50.6575 38.6957C51.6674 39.0322 53.5795 39.6971 54.4286 39.9835C55.6321 40.3896 62.777 41.6978 63.3908 41.4248L63.4551 41.1421L63.5494 41.4156C63.9366 41.5551 64.8337 41.3841 65.2861 41.3397C69.6425 40.9119 73.3675 39.2955 77.4393 37.8011C78.805 36.9981 80.2219 36.664 81.619 36.0569C84.154 34.9553 86.6877 34.1154 89.2522 33.1103C90.1304 32.7661 90.984 32.7343 91.7975 32.3164Z" fill="var(--fill-0, #D43D37)"/>
<path id="Vector_5" d="M209.795 31.4168C211.115 28.0721 221.547 1.62585 222.5 0.729728C222.934 0.321496 233.333 0.517358 234.871 0.496058C233.682 3.91581 232.422 6.70726 231.042 10.0329L226.007 22.242L222.836 29.9503C222.312 31.2419 221.891 32.4629 221.294 33.7296C220.792 34.6736 220.207 36.3938 219.733 37.4648C216.424 44.9475 214.421 52.824 208.189 58.5662C202.928 63.4108 197.546 64.795 190.62 64.6159C190.542 61.1443 190.401 56.201 190.716 52.8163C198.136 53.0257 200.032 51.3345 204.174 45.4167C203.795 44.4409 202.912 42.7393 202.433 41.7099L198.579 33.4247C193.532 22.5435 188.112 11.4765 183.251 0.546345C186 0.607221 188.78 0.474884 191.529 0.514207C192.495 0.653981 195.483 0.0987895 195.974 1.06272C197.003 3.08207 197.927 5.30221 198.846 7.34715L205.911 22.8709C206.661 24.5479 207.315 26.1496 208.142 27.8211C208.725 28.9982 209.06 30.2308 209.795 31.4168Z" fill="var(--fill-0, #113E66)"/>
<path id="Vector_6" d="M107.572 42.9346C107.823 42.9019 108.203 43.0466 108.294 43.3112C110.148 48.6758 112.06 54.0248 113.912 59.3918C114.268 60.4249 115.701 63.4435 115.399 64.469C114.757 64.7819 106.16 64.6358 104.936 64.6355L102.031 64.6189C101.589 62.6221 100.629 60.1368 100.032 58.1789C98.9068 54.4872 97.6632 51.012 96.6919 47.2647C98.8624 45.8084 104.948 43.4986 107.572 42.9346Z" fill="var(--fill-0, #113E66)"/>
<path id="Vector_7" d="M60.3283 50.1504C60.9771 50.3069 62.9486 51.5909 63.6482 51.9788C65.325 52.9086 67.013 53.8191 68.8481 54.4141C69.4456 54.6078 71.4144 55.0384 71.6877 55.4686C71.6623 56.2358 69.3384 63.81 68.849 64.6348C68.2188 64.6687 67.457 64.6596 66.8154 64.6688L55.3941 64.6194C56.6705 59.935 58.7014 54.793 60.3283 50.1504Z" fill="var(--fill-0, #113E66)"/>
</g>
<defs>
<clipPath id="clip0_0_17">
<rect width="235" height="65" fill="white"/>
</clipPath>
</defs>
</svg>
