<svg width="159" height="18" viewBox="0 0 159 18" fill="none" xmlns="http://www.w3.org/2000/svg">
<path d="M20.5168 15.3745C20.5162 15.6471 20.5073 15.9197 20.4904 16.1917C20.4394 17.0199 19.7011 17.8586 18.9144 17.9579C18.5689 18.001 18.2172 18.0015 17.8686 17.9993C17.342 17.9965 16.8117 18.0114 16.2899 17.953C15.4058 17.8536 14.6738 16.9471 14.6738 16.0135C14.6733 13.3064 14.6738 10.5994 14.6738 7.8924C14.6738 6.95052 14.034 6.27735 13.1357 6.2768C12.1768 6.2768 11.2184 6.2768 10.26 6.2768C9.30162 6.2768 8.34324 6.2768 7.38434 6.2768C6.48599 6.27735 5.84619 6.95052 5.84619 7.8924C5.84619 10.5994 5.84672 13.3064 5.84619 16.0135C5.84619 16.9471 5.11425 17.8536 4.23011 17.953C3.70827 18.0114 3.178 17.9965 2.65142 17.9993C2.30283 18.0015 1.95107 18.001 1.60563 17.9579C0.818918 17.8586 0.0806501 17.0199 0.0295717 16.1917C0.0127211 15.9197 0.00376919 15.6471 0.00324261 15.3745C0.00113628 12.9969 -0.00360295 10.6198 0.00482236 8.24223C0.00850843 7.23965 0.664103 6.42743 1.60616 6.31487C2.08587 6.25748 2.57507 6.2779 3.06058 6.27404C3.87994 6.26797 4.49972 5.69853 4.5982 4.84549C4.61821 4.67388 4.62821 4.50063 4.62874 4.32847C4.63137 3.12118 4.6419 3.18298 4.63084 1.97569C4.62136 1.00898 5.367 0.142137 6.25324 0.0356438C6.38173 0.0196422 6.51074 0.00198534 6.63975 0.00143356C7.84615 -0.000221772 9.05308 -0.000221772 10.26 0.000330005C11.4669 0.000330005 12.6739 0.000330005 13.8803 0.00143356C14.0093 0.00198534 14.1383 0.0196422 14.2668 0.0356438C15.153 0.142137 15.8986 1.00898 15.8892 1.97569C15.8781 3.18298 15.8886 3.12118 15.8913 4.32847C15.8913 4.50063 15.9018 4.67388 15.9218 4.84549C16.0203 5.69853 16.6401 6.26797 17.4594 6.27404C17.9449 6.2779 18.4341 6.25748 18.9138 6.31487C19.8559 6.42743 20.5115 7.23965 20.5152 8.24223C20.5236 10.6198 20.5189 12.9969 20.5168 15.3745Z" fill="white"/>
<path d="M145.928 7.08969V4.1947H158.028L145.928 7.08969ZM158.028 4.1947V7.10416H153.709V14.9061H150.303V7.10416H145.928V4.1947H158.028Z" fill="white"/>
<path d="M137.768 4.41103C136.734 4.41103 135.899 4.1746 135.262 3.70176C134.625 3.21926 134.311 2.49551 134.321 1.53052H136.162C136.162 1.97442 136.31 2.34594 136.605 2.64509C136.91 2.94424 137.293 3.09381 137.754 3.09381C138.206 3.09381 138.58 2.94424 138.875 2.64509C139.18 2.34594 139.332 1.97442 139.332 1.53052H141.174C141.174 2.48586 140.855 3.20478 140.218 3.68728C139.591 4.16978 138.774 4.41103 137.768 4.41103ZM134.944 10.8379L140.62 4.1939H144.025V14.9054H140.62V8.24688L134.944 14.9054H131.524V4.1939H134.944V10.8379Z" fill="white"/>
<path d="M130.256 14.9061H126.808L125.853 13.0678H120.052L119.097 14.9061H115.65L121.202 4.1947H124.704L130.256 14.9061ZM122.96 7.46604L121.298 10.6505H124.607L122.96 7.46604Z" fill="white"/>
<path d="M102.352 9.56417C102.352 8.49302 102.652 7.52803 103.252 6.66918C103.861 5.81034 104.687 5.13966 105.73 4.65717C106.782 4.16502 107.945 3.91895 109.219 3.91895C110.363 3.91895 111.397 4.11194 112.32 4.49794C113.243 4.87429 114 5.40986 114.59 6.10466C115.181 6.78981 115.573 7.59558 115.767 8.52197H112.223C112.085 8.13598 111.849 7.80305 111.517 7.5232C111.194 7.2337 110.829 7.01658 110.423 6.87183C110.017 6.72708 109.62 6.65471 109.233 6.65471C108.688 6.65471 108.157 6.77051 107.641 7.00211C107.133 7.2337 106.718 7.57145 106.395 8.01535C106.081 8.4496 105.924 8.96587 105.924 9.56417C105.924 10.1625 106.081 10.6836 106.395 11.1275C106.708 11.5617 107.115 11.8946 107.613 12.1262C108.121 12.3482 108.66 12.4592 109.233 12.4592C109.87 12.4592 110.456 12.2999 110.991 11.9815C111.535 11.663 111.937 11.2095 112.195 10.6208H115.753C115.55 11.5376 115.153 12.3434 114.563 13.0382C113.972 13.7233 113.22 14.254 112.306 14.6304C111.392 15.0067 110.363 15.1949 109.219 15.1949C107.954 15.1949 106.796 14.9488 105.744 14.4567C104.701 13.9645 103.875 13.289 103.266 12.4302C102.657 11.5714 102.352 10.616 102.352 9.56417Z" fill="white"/>
<path d="M91.4389 4.1947V10.8387L97.115 4.1947H100.521V14.9061H97.115V8.24768L91.4389 14.9061H88.0194V4.1947H91.4389Z" fill="white"/>
<path d="M85.9099 4.1947V14.9061H82.4766V6.72781H76.7728V14.9061H73.3395V4.1947H85.9099Z" fill="white"/>
<path d="M70.2228 12.3007H71.5933V16.2957H68.3953V14.9206L60.8918 14.9061V16.2957H57.6938V12.3007H58.7183C59.2167 11.2874 59.6182 10.3803 59.9228 9.57937C60.2273 8.77843 60.4581 7.94371 60.615 7.07521C60.7811 6.19707 60.8641 5.2369 60.8641 4.1947H70.2089L70.2228 12.3007ZM63.8406 6.75676C63.693 7.68316 63.4668 8.57095 63.1623 9.42015C62.8669 10.2693 62.4747 11.2295 61.9855 12.3007H67.0386V6.77124L63.8406 6.75676Z" fill="white"/>
<path d="M50.1915 3.96179C51.4559 3.96179 52.5958 4.20787 53.611 4.70001C54.6355 5.18251 55.4338 5.85318 56.006 6.71203C56.5875 7.56122 56.8782 8.52139 56.8782 9.59254C56.8782 10.654 56.5875 11.6094 56.006 12.4586C55.4338 13.3078 54.6401 13.9784 53.6248 14.4706C52.6096 14.9531 51.4698 15.1943 50.2053 15.1943C48.9871 15.1943 47.8611 14.9531 46.8274 14.4706C45.7937 13.9784 44.9723 13.3078 44.3631 12.4586C43.7632 11.5997 43.4633 10.6444 43.4633 9.59254C43.4633 8.53104 43.7632 7.57087 44.3631 6.71203C44.9723 5.85318 45.7891 5.18251 46.8135 4.70001C47.8472 4.20787 48.9732 3.96179 50.1915 3.96179ZM50.2053 12.4875C50.7222 12.4875 51.216 12.3717 51.6867 12.1401C52.1666 11.9085 52.5542 11.5756 52.8496 11.1414C53.1449 10.7071 53.2926 10.1908 53.2926 9.59254C53.2926 8.99424 53.1403 8.47797 52.8357 8.04372C52.5404 7.59982 52.1527 7.2669 51.6728 7.04495C51.1929 6.81335 50.6945 6.69755 50.1776 6.69755C49.6516 6.69755 49.1532 6.81335 48.6825 7.04495C48.2118 7.27655 47.8288 7.6143 47.5334 8.0582C47.2473 8.49244 47.1043 9.00389 47.1043 9.59254C47.1043 10.1908 47.2519 10.7071 47.5473 11.1414C47.8426 11.5756 48.2256 11.9085 48.6963 12.1401C49.1763 12.3717 49.6793 12.4875 50.2053 12.4875Z" fill="white"/>
<path d="M41.6471 4.1947V14.9061H38.2138V6.72781H32.51V14.9061H29.0767V4.1947H41.6471Z" fill="white"/>
</svg>
