<svg preserveAspectRatio="none" width="100%" height="100%" overflow="visible" style="display: block;" viewBox="0 0 140 28" fill="none" xmlns="http://www.w3.org/2000/svg">
<g id="Frame 26">
<path id="Star 1" d="M13.0866 2.04906C13.439 1.25857 14.561 1.25857 14.9134 2.04906L17.6328 8.14986C17.7781 8.4759 18.0862 8.69974 18.4412 8.73721L25.0838 9.43829C25.9445 9.52913 26.2912 10.5962 25.6483 11.1756L20.6864 15.6472C20.4212 15.8862 20.3036 16.2484 20.3776 16.5976L21.7635 23.1316C21.9431 23.9783 21.0354 24.6378 20.2857 24.2054L14.4996 20.8682C14.1904 20.6898 13.8096 20.6898 13.5004 20.8682L7.71434 24.2054C6.96464 24.6378 6.05691 23.9783 6.23648 23.1316L7.62238 16.5976C7.69644 16.2484 7.57876 15.8862 7.31359 15.6472L2.35173 11.1756C1.70882 10.5962 2.05554 9.52913 2.91623 9.43829L9.55879 8.73721C9.91377 8.69974 10.2219 8.4759 10.3672 8.14986L13.0866 2.04906Z" fill="var(--fill-0, #113E66)"/>
<path id="Star 2" d="M41.0866 2.04906C41.439 1.25857 42.561 1.25857 42.9134 2.04906L45.6328 8.14986C45.7781 8.4759 46.0862 8.69974 46.4412 8.73721L53.0838 9.43829C53.9445 9.52913 54.2912 10.5962 53.6483 11.1756L48.6864 15.6472C48.4212 15.8862 48.3036 16.2484 48.3776 16.5976L49.7635 23.1316C49.9431 23.9783 49.0354 24.6378 48.2857 24.2054L42.4996 20.8682C42.1904 20.6898 41.8096 20.6898 41.5004 20.8682L35.7143 24.2054C34.9646 24.6378 34.0569 23.9783 34.2365 23.1316L35.6224 16.5976C35.6964 16.2484 35.5788 15.8862 35.3136 15.6472L30.3517 11.1756C29.7088 10.5962 30.0555 9.52913 30.9162 9.43829L37.5588 8.73721C37.9138 8.69974 38.2219 8.4759 38.3672 8.14986L41.0866 2.04906Z" fill="var(--fill-0, #113E66)"/>
<path id="Star 3" d="M69.0866 2.04906C69.439 1.25857 70.561 1.25857 70.9134 2.04906L73.6328 8.14986C73.7781 8.4759 74.0862 8.69974 74.4412 8.73721L81.0838 9.43829C81.9445 9.52913 82.2912 10.5962 81.6483 11.1756L76.6864 15.6472C76.4212 15.8862 76.3036 16.2484 76.3776 16.5976L77.7635 23.1316C77.9431 23.9783 77.0354 24.6378 76.2857 24.2054L70.4996 20.8682C70.1904 20.6898 69.8096 20.6898 69.5004 20.8682L63.7143 24.2054C62.9646 24.6378 62.0569 23.9783 62.2365 23.1316L63.6224 16.5976C63.6964 16.2484 63.5788 15.8862 63.3136 15.6472L58.3517 11.1756C57.7088 10.5962 58.0555 9.52913 58.9162 9.43829L65.5588 8.73721C65.9138 8.69974 66.2219 8.4759 66.3672 8.14986L69.0866 2.04906Z" fill="var(--fill-0, #113E66)"/>
<path id="Star 4" d="M97.0866 2.04906C97.439 1.25857 98.561 1.25857 98.9134 2.04906L101.633 8.14986C101.778 8.4759 102.086 8.69974 102.441 8.73721L109.084 9.43829C109.944 9.52913 110.291 10.5962 109.648 11.1756L104.686 15.6472C104.421 15.8862 104.304 16.2484 104.378 16.5976L105.764 23.1316C105.943 23.9783 105.035 24.6378 104.286 24.2054L98.4996 20.8682C98.1904 20.6898 97.8096 20.6898 97.5004 20.8682L91.7143 24.2054C90.9646 24.6378 90.0569 23.9783 90.2365 23.1316L91.6224 16.5976C91.6964 16.2484 91.5788 15.8862 91.3136 15.6472L86.3517 11.1756C85.7088 10.5962 86.0555 9.52913 86.9162 9.43829L93.5588 8.73721C93.9138 8.69974 94.2219 8.4759 94.3672 8.14986L97.0866 2.04906Z" fill="var(--fill-0, #113E66)"/>
<path id="Star 5" d="M125.087 2.04906C125.439 1.25857 126.561 1.25857 126.913 2.04906L129.633 8.14986C129.778 8.4759 130.086 8.69974 130.441 8.73721L137.084 9.43829C137.944 9.52913 138.291 10.5962 137.648 11.1756L132.686 15.6472C132.421 15.8862 132.304 16.2484 132.378 16.5976L133.764 23.1316C133.943 23.9783 133.035 24.6378 132.286 24.2054L126.5 20.8682C126.19 20.6898 125.81 20.6898 125.5 20.8682L119.714 24.2054C118.965 24.6378 118.057 23.9783 118.236 23.1316L119.622 16.5976C119.696 16.2484 119.579 15.8862 119.314 15.6472L114.352 11.1756C113.709 10.5962 114.056 9.52913 114.916 9.43829L121.559 8.73721C121.914 8.69974 122.222 8.4759 122.367 8.14986L125.087 2.04906Z" fill="var(--fill-0, #113E66)"/>
</g>
</svg>
