<svg preserveAspectRatio="none" width="100%" height="100%" overflow="visible" style="display: block;" viewBox="0 0 266 82" fill="none" xmlns="http://www.w3.org/2000/svg">
<path id="Vector" d="M157.267 3.91953C158.989 3.8911 168.006 2.18139 170.009 1.79059C181.745 -0.498826 192.739 -0.708436 204.512 1.83541C210.083 2.91868 217.062 4.26794 222.42 6.05379C235.48 10.4056 257.088 23.5619 266 33.7913C251.99 25.8094 248.109 22.298 231.712 17.9341C206.444 11.2094 184.813 14.0304 159.971 20.994C149.718 23.6974 104.28 43.1446 106.098 54.835C111.121 57.056 188.929 15.6615 227.592 31.4132C214.408 34.0139 207.52 35.1502 194.891 40.2172C159.357 54.4741 129.519 87.5282 88.0584 81.2054C69.5003 78.3753 51.5029 69.5454 36.0362 59.1319C22.8626 50.3048 10.7683 39.9598 0 28.3099C3.86054 29.5965 11.1699 32.1385 14.4158 33.2338C19.0165 34.7864 46.3293 39.7878 48.6759 38.7441L48.9216 37.6632L49.2823 38.7089C50.7622 39.2423 54.1918 38.5884 55.9213 38.4188C72.5744 36.7833 86.8142 30.6032 102.379 24.8895C107.6 21.8195 113.017 20.542 118.357 18.2208C128.048 14.0091 137.734 10.7979 147.537 6.9549C150.894 5.63889 154.157 5.51745 157.267 3.91953Z" fill="url(#paint0_linear_0_14)" fill-opacity="0.08"/>
<defs>
<linearGradient id="paint0_linear_0_14" x1="0" y1="41" x2="266" y2="41" gradientUnits="userSpaceOnUse">
<stop stop-color="#EDF6FC"/>
<stop offset="1" stop-color="#FAFBFD"/>
</linearGradient>
</defs>
</svg>
