<svg preserveAspectRatio="none" width="100%" height="100%" overflow="visible" style="display: block;" viewBox="0 0 282 87" fill="none" xmlns="http://www.w3.org/2000/svg">
<path id="Vector" d="M166.727 4.15853C168.552 4.12836 178.112 2.3144 180.235 1.89977C192.677 -0.529243 204.332 -0.751633 216.813 1.94733C222.72 3.09664 230.118 4.52818 235.799 6.42292C249.644 11.0401 272.552 24.9987 282 35.8517C267.147 27.3832 263.033 23.6576 245.649 19.0276C218.861 11.8929 195.93 14.8859 169.593 22.2741C158.723 25.1423 110.553 45.7754 112.479 58.1786C117.805 60.535 200.293 16.6165 241.282 33.3287C227.304 36.088 220.002 37.2935 206.614 42.6695C168.943 57.7957 137.31 92.8653 93.3552 86.157C73.6807 83.1543 54.6008 73.7859 38.2038 62.7375C24.2378 53.3722 11.4161 42.3964 0 30.0361C4.09275 31.4012 11.8418 34.0981 15.2829 35.2602C20.1604 36.9075 49.1161 42.2139 51.6037 41.1065L51.8643 39.9597L52.2467 41.0692C53.8156 41.6352 57.4514 40.9414 59.2849 40.7614C76.9398 39.0262 92.0361 32.4692 108.538 26.4072C114.072 23.1499 119.815 21.7946 125.477 19.3318C135.75 14.8634 146.018 11.4563 156.412 7.37898C159.971 5.98272 163.43 5.85388 166.727 4.15853Z" fill="url(#paint0_linear_0_4)" fill-opacity="0.1"/>
<defs>
<linearGradient id="paint0_linear_0_4" x1="0" y1="43.5" x2="282" y2="43.5" gradientUnits="userSpaceOnUse">
<stop stop-color="#113E66"/>
<stop offset="1" stop-color="#FAFBFD"/>
</linearGradient>
</defs>
</svg>
