<svg preserveAspectRatio="none" width="100%" height="100%" overflow="visible" style="display: block;" viewBox="0 0 426 131" fill="none" xmlns="http://www.w3.org/2000/svg">
<path id="Vector" d="M251.864 6.26169C254.621 6.21627 269.063 3.48491 272.271 2.86057C291.066 -0.796906 308.672 -1.13177 327.526 2.93218C336.449 4.66276 347.626 6.8183 356.207 9.6713C377.123 16.6237 411.728 37.6416 426 53.9837C403.563 41.2321 397.347 35.6224 371.087 28.6508C330.62 17.9077 295.979 22.4143 256.194 33.5392C239.774 37.858 167.005 68.9261 169.916 87.6023C177.961 91.1504 302.57 25.0202 364.49 50.1845C343.375 54.3393 332.343 56.1546 312.119 64.2494C255.211 87.0257 207.425 139.832 141.026 129.731C111.305 125.209 82.482 111.103 57.7121 94.4669C36.6146 80.3651 17.2455 63.8383 0 45.2268C6.18267 47.2823 17.8887 51.3432 23.087 53.093C30.455 55.5734 74.1966 63.5635 77.9546 61.896L78.3482 60.1693L78.9258 61.8398C81.2958 62.692 86.7883 61.6473 89.5581 61.3763C116.228 58.7635 139.033 48.8905 163.961 39.7625C172.322 34.8579 180.996 32.8171 189.55 29.1088C205.069 22.3805 220.581 17.2503 236.281 11.1109C241.658 9.00847 246.884 8.81446 251.864 6.26169Z" fill="url(#paint0_linear_0_26)"/>
<defs>
<linearGradient id="paint0_linear_0_26" x1="-166.5" y1="66" x2="420.858" y2="65.6356" gradientUnits="userSpaceOnUse">
<stop stop-color="#EDF6FC"/>
<stop offset="1" stop-color="#FAFBFD"/>
</linearGradient>
</defs>
</svg>
